<?xml version="1.0" encoding="UTF-8" standalone="no"?>
<!-- Created with Inkscape (http://www.inkscape.org/) -->

<svg
   xmlns:dc="http://purl.org/dc/elements/1.1/"
   xmlns:cc="http://creativecommons.org/ns#"
   xmlns:rdf="http://www.w3.org/1999/02/22-rdf-syntax-ns#"
   xmlns:svg="http://www.w3.org/2000/svg"
   xmlns="http://www.w3.org/2000/svg"
   xmlns:sodipodi="http://sodipodi.sourceforge.net/DTD/sodipodi-0.dtd"
   xmlns:inkscape="http://www.inkscape.org/namespaces/inkscape"
   width="131.20015mm"
   height="131.20013mm"
   viewBox="0 0 464.88242 464.88236"
   id="svg5313"
   version="1.1"
   inkscape:version="0.91 r13725"
   sodipodi:docname="wordpress-plugin_logo.svg">
  <defs
     id="defs5315" />
  <sodipodi:namedview
     id="base"
     pagecolor="#ffffff"
     bordercolor="#666666"
     borderopacity="1.0"
     inkscape:pageopacity="0.0"
     inkscape:pageshadow="2"
     inkscape:zoom="0.98994949"
     inkscape:cx="160.37434"
     inkscape:cy="311.54272"
     inkscape:document-units="px"
     inkscape:current-layer="layer1"
     showgrid="false"
     fit-margin-top="0"
     fit-margin-left="0"
     fit-margin-right="0"
     fit-margin-bottom="0"
     inkscape:window-width="1504"
     inkscape:window-height="1178"
     inkscape:window-x="-8"
     inkscape:window-y="-8"
     inkscape:window-maximized="1" />
  <metadata
     id="metadata5318">
    <rdf:RDF>
      <cc:Work
         rdf:about="">
        <dc:format>image/svg+xml</dc:format>
        <dc:type
           rdf:resource="http://purl.org/dc/dcmitype/StillImage" />
        <dc:title></dc:title>
      </cc:Work>
    </rdf:RDF>
  </metadata>
  <g
     inkscape:label="Layer 1"
     inkscape:groupmode="layer"
     id="layer1"
     transform="translate(-181.84451,-11.349586)">
    <path
       style="opacity:1;fill:#ffffff;fill-opacity:1;stroke:none;stroke-width:10;stroke-linecap:round;stroke-linejoin:round;stroke-miterlimit:4;stroke-dasharray:none;stroke-dashoffset:0;stroke-opacity:1"
       id="path5873"
       sodipodi:type="arc"
       sodipodi:cx="414.68466"
       sodipodi:cy="242.88669"
       sodipodi:rx="227.7894"
       sodipodi:ry="227.28433"
       sodipodi:start="1.0546396"
       sodipodi:end="1.0413053"
       sodipodi:open="true"
       d="M 527.10812,440.56097 A 227.7894,227.28433 0 0 1 216.94699,355.71921 227.7894,227.28433 0 0 1 300.94286,45.964681 227.7894,227.28433 0 0 1 611.664,128.74126 227.7894,227.28433 0 0 1 529.73975,439.04767" />
    <path
       inkscape:connector-curvature="0"
       style="fill:#464646;fill-opacity:1;fill-rule:evenodd"
       id="path2446-2"
       d="m 356.16119,435.05805 c 89.53027,-287.87158 44.76514,-143.93582 0,0 z M 414.28571,25.167735 c 120.7206,0 218.6226,97.901995 218.6226,218.622605 0,120.72059 -97.902,218.62258 -218.6226,218.62258 -120.7206,0 -218.6226,-97.90199 -218.6226,-218.62258 0,-120.72061 97.902,-218.622605 218.6226,-218.622605 z m 0,-13.818149 c 128.3517,0 232.4412,104.089494 232.4412,232.441204 0,128.35169 -104.0895,232.44118 -232.4412,232.44118 -128.3517,0 -232.4412,-104.08949 -232.4412,-232.44118 0,-128.35171 104.0895,-232.441204 232.4412,-232.441204 z"
       sodipodi:nodetypes="ccsssssscssscc" />
    <path
       style="opacity:1;fill:#464646;fill-opacity:1;fill-rule:evenodd;stroke:none;stroke-width:10;stroke-linecap:round;stroke-linejoin:round;stroke-miterlimit:4;stroke-dasharray:none;stroke-dashoffset:0;stroke-opacity:1"
       id="path4734"
       sodipodi:type="arc"
       sodipodi:cx="414.28574"
       sodipodi:cy="243.79077"
       sodipodi:rx="200.44968"
       sodipodi:ry="199.94853"
       sodipodi:start="1.0546396"
       sodipodi:end="1.0413053"
       sodipodi:open="true"
       d="M 513.21591,417.69049 A 200.44968,199.94853 0 0 1 240.28092,343.05277 200.44968,199.94853 0 0 1 314.19545,70.552845 200.44968,199.94853 0 0 1 587.62324,143.37377 200.44968,199.94853 0 0 1 515.53169,416.3592" />
    <path
       d="m 354.1822,91.603875 c -3.28266,0 -6.15051,2.26242 -6.8994,5.458679 -0.7488,3.195896 0.8001,6.465956 3.74067,7.925036 l 0,26.12993 c 0,3.33324 1.32876,6.53814 3.68532,8.89488 l 8.17416,8.17416 c -11.17399,14.55721 -16.18908,33.21335 -13.90992,51.70592 l 0,0.171 c -1.71225,-0.477 -3.20337,-1.2348 -4.43385,-2.2995 l -13.52187,-13.5504 c -0.0719,-0.072 -0.1485,-0.117 -0.2214,-0.189 -2.33388,-2.223 -5.44167,-3.4632 -8.67321,-3.4632 l -46.33012,0 -0.3051,0 c -1.45872,-2.94039 -4.75677,-4.49019 -7.95267,-3.7404 -3.1959,0.747 -5.45868,3.5892 -5.45868,6.8724 0,3.2832 2.26269,6.1227 5.45868,6.8724 3.1959,0.747 6.49404,-0.801 7.95267,-3.7404 l 44.75081,0 c 1.56744,2.7e-4 3.08556,0.585 4.23963,1.6353 0.0732,0.066 0.1512,0.153 0.2214,0.216 l 23.63619,23.63616 c 0.6219,0.72 1.23867,1.4841 1.85652,2.2725 1.91934,2.4435 3.81429,5.2029 5.59728,8.1468 1.02762,2.0709 2.15676,4.0896 3.38058,6.0408 l 0.36,0.666 c 7.75728,15.29595 11.48506,32.08824 1.69038,32.39271 l -48.90745,0 -0.3051,0 c -3.33288,0 -6.5376,1.3284 -8.8947,3.6855 l -31.69881,31.69475 c -3.11148,-1.0476 -6.52725,0.198 -8.25741,2.9925 -1.72998,2.79 -1.32372,6.3792 0.99756,8.7003 2.32146,2.3211 5.9391,2.7549 8.72865,1.0251 2.78973,-1.7298 4.01238,-5.1462 2.96469,-8.2575 l 31.69975,-31.69934 c 1.17846,-1.1781 2.79468,-1.8567 4.46112,-1.8567 l 49.21226,0 c 0.1098,0.002 0.2232,0.0227 0.3321,0.0276 12.64229,0.558 28.59164,18.45782 28.9287,29.87054 l 0,32.86359 c 0,1.4067 -0.4752,2.754 -1.32993,3.8511 -0.1575,0.198 -0.3141,0.396 -0.4986,0.576 l -33.94423,33.9444 c -2.35656,2.3571 -3.68451,5.5341 -3.68532,8.8668 l 0,4.48919 c -2.93985,1.4589 -4.49001,4.7295 -3.74067,7.9254 0.7488,3.1959 3.61692,5.4585 6.8994,5.4585 3.28266,0 6.12261,-2.2626 6.87195,-5.4585 0.7488,-3.1959 -0.8001,-6.4656 -3.74076,-7.9254 l 0,-4.48919 c 0,-1.6668 0.6507,-3.2553 1.82889,-4.4343 l 33.94399,-33.94395 c 0.1818,-0.18 0.3582,-0.36 0.5265,-0.558 2.02662,-2.2905 3.15891,-5.2362 3.15891,-8.3124 l 0,-32.14314 c 0.003,-0.108 0.0195,-0.198 0.0276,-0.297 0.95967,-11.93661 34.21211,-15.31917 35.02489,0.297 l 0,19.61838 c 0,3.3327 1.30104,6.5097 3.65778,8.8668 l 33.94401,33.9444 c 1.0035,1.0026 1.63593,2.3184 1.8009,3.7125 0.0286,0.252 0.028,0.468 0.028,0.72 l 0,16.68105 0,0.33299 c -2.94084,1.4598 -4.49046,4.7295 -3.74094,7.9254 0.7488,3.1959 3.61719,5.4585 6.89976,5.4585 3.28266,0 6.12261,-2.2626 6.87195,-5.4585 0.7488,-3.1959 -0.8001,-6.4665 -3.74076,-7.9254 l 0,-17.0135 c 0,-0.252 -0.0129,-0.495 -0.0276,-0.747 -0.1827,-3.0591 -1.47798,-5.9382 -3.65778,-8.1189 l -33.9164,-33.94395 c -1.17792,-1.1781 -1.85652,-2.7675 -1.85652,-4.4334 l 0,-19.61838 c 0.2556,-16.12197 13.13189,-21.72456 22.86002,-22.22226 l 64.03683,0 c 1.56717,0 3.08529,0.585 4.23936,1.6353 0.0735,0.0663 0.1233,0.153 0.1944,0.216 l 23.30376,23.30343 c -1.04778,3.1104 0.1755,6.5268 2.96487,8.2575 2.78973,1.7298 6.40719,1.296 8.72847,-1.0251 2.32119,-2.3211 2.75508,-5.9112 1.02546,-8.7003 -1.68651,-2.718 -4.98987,-3.9564 -8.03601,-3.0483 -0.0795,0.0235 -0.1431,0.0288 -0.2214,0.0555 l -23.30425,-23.28627 c -0.0719,-0.0719 -0.1485,-0.117 -0.2214,-0.189 -2.33343,-2.2239 -5.4414,-3.4632 -8.67276,-3.4632 l -61.0442,0 -0.3051,0 c -15.48794,-0.19799 9.58217,-49.96673 19.86835,-50.41025 l 38.98701,0 c 0.108,0 0.2259,0.002 0.3321,0 3.21579,-0.0829 6.28155,-1.4049 8.5626,-3.6846 l 25.79772,-25.77006 c 3.11103,1.0476 6.52725,-0.198 8.25741,-2.9925 1.72962,-2.79 1.29573,-6.3792 -1.02546,-8.7003 -2.32128,-2.32119 -5.91111,-2.7549 -8.70075,-1.0251 -2.78973,1.7298 -4.04046,5.1462 -2.99259,8.2575 l -25.7703,25.79274 c -1.09926,1.0989 -2.58381,1.7469 -4.12875,1.8288 -0.1107,0.005 -0.2205,0 -0.3321,0 l -40.31728,0 -0.3051,0 c -1.62522,-0.198 -3.1581,-0.9576 -4.62726,-2.1618 0.0628,-0.207 0.1053,-0.432 0.1665,-0.639 6.39027,-22.37013 1.45296,-46.62571 -13.13418,-64.36753 l 0,-30.56333 c 0,-1.6668 0.6786,-3.25494 1.85652,-4.43349 l 6.0129,-6.0129 c 3.11112,1.04742 6.55488,-0.2034 8.28522,-2.99259 1.7298,-2.78973 1.296,-6.40719 -1.02528,-8.728649 -2.32119,-2.32101 -5.93865,-2.7279 -8.72838,-0.99756 -2.79,1.7298 -4.01283,5.146649 -2.96496,8.257409 l -6.0129,6.0408 c -2.35683,2.3571 -3.68532,5.53374 -3.68532,8.86707 l 0,23.91329 c -26.33478,-24.3741 -66.37875,-22.8371 -90.91549,3.46207 l -0.1386,0.1665 -7.81407,-7.78608 c -1.17891,-1.17846 -1.82898,-2.79531 -1.82898,-4.46175 l 0,-26.12992 c 2.94084,-1.45908 4.49001,-4.72887 3.74076,-7.925042 -0.7488,-3.195899 -3.5892,-5.458679 -6.87186,-5.458679 z m 0,3.90681 c 1.73529,0 3.13119,1.423979 3.13119,3.159179 0,1.735286 -1.3959,3.131186 -3.13119,3.131186 -1.73511,0 -3.15882,-1.39581 -3.15882,-3.131186 0,-1.7352 1.42362,-3.159179 3.15882,-3.159179 z m 120.23153,0 c 1.73529,0 3.13119,1.423979 3.13119,3.159179 0,1.735286 -1.3959,3.131186 -3.13119,3.131186 -1.73529,0 -3.15873,-1.39581 -3.15873,-3.131186 0,-1.7352 1.42353,-3.159179 3.15873,-3.159179 z M 269.16974,180.55121 c 1.73529,0 3.13119,1.3959 3.13119,3.1311 0,1.7361 -1.39581,3.1311 -3.13119,3.1311 -1.73529,0 -3.15909,-1.3959 -3.15909,-3.1311 0,-1.7361 1.4238,-3.1311 3.15909,-3.1311 z m 290.25656,0 c 1.73511,0 3.13119,1.3959 3.13119,3.1311 0,1.7361 -1.39599,3.1311 -3.13119,3.1311 -1.73529,0 -3.13119,-1.3959 -3.13119,-3.1311 0,-1.7361 1.3959,-3.1311 3.13119,-3.1311 z m -169.19407,38.54412 c 7.26498,-0.261 14.23679,6.2307 16.21015,15.07365 -1.82232,-2.3769 -4.96728,-3.3102 -7.78653,-2.2995 -2.81952,1.0107 -4.67415,3.7395 -4.572,6.7338 0.1026,2.9925 2.13363,5.5575 5.01543,6.3729 2.88171,0.819 5.96493,-0.333 7.62021,-2.826 -1.37979,8.4933 -7.96077,13.56273 -15.29586,11.77659 -7.33464,-1.7856 -13.10624,-9.85671 -13.41127,-18.75951 -0.3042,-8.9028 4.95495,-15.81246 12.21988,-16.07103 z m 48.10387,0 c 7.26489,0.261 12.5238,7.1685 12.21966,16.07112 -0.3051,8.9028 -6.07671,16.97328 -13.41138,18.75942 -7.335,1.7865 -13.88799,-3.2841 -15.26793,-11.77659 1.65555,2.4957 4.7385,3.6423 7.6203,2.826 2.88171,-0.819 4.88493,-3.3795 4.98771,-6.3729 0.1017,-2.9934 -1.72485,-5.7231 -4.54446,-6.7338 -2.81916,-1.0107 -5.96421,-0.077 -7.78653,2.2995 1.97343,-8.8434 8.91765,-15.33213 16.18256,-15.07365 z m -169.16636,81.68741 c 1.73529,0 3.13119,1.3959 3.13119,3.1311 0,1.7361 -1.39581,3.1311 -3.13119,3.1311 -1.73529,0 -3.15909,-1.3959 -3.15909,-3.1311 0,-1.7361 1.4238,-3.1311 3.15909,-3.1311 z m 290.25656,0 c 1.73511,0 3.13119,1.3959 3.13119,3.1311 0,1.7361 -1.39599,3.1311 -3.13119,3.1311 -1.73529,0 -3.13119,-1.3959 -3.13119,-3.1311 0,-1.7361 1.3959,-3.1311 3.13119,-3.1311 z M 354.1822,385.7952 c 1.73529,0 3.13119,1.3959 3.13119,3.1311 0,1.7343 -1.3959,3.159 -3.13119,3.159 -1.73511,0 -3.15882,-1.4238 -3.15882,-3.159 0,-1.7361 1.42362,-3.1311 3.15882,-3.1311 z m 120.23153,0 c 1.73529,0 3.13119,1.3959 3.13119,3.1311 0,1.7343 -1.3959,3.159 -3.13119,3.159 -1.73529,0 -3.15873,-1.4238 -3.15873,-3.159 0,-1.7361 1.42353,-3.1311 3.15873,-3.1311 z"
       style="fill:#ffffff;fill-opacity:1;fill-rule:evenodd"
       id="path4738"
       inkscape:connector-curvature="0" />
  </g>
</svg>
